<svg version="1.2" xmlns="http://www.w3.org/2000/svg" viewBox="0 0 1329 426" width="600" height="192">
	<title>logo_oscars_2015-ai</title>
	<defs>
		<linearGradient id="g1" x1="54.3" y1="148.9" x2="302.5" y2="148.9" gradientUnits="userSpaceOnUse">
			<stop offset="0" stop-color="#d38125"/>
			<stop offset=".4" stop-color="#ffb53a"/>
			<stop offset=".6" stop-color="#ffe077"/>
			<stop offset="1" stop-color="#ffb53a"/>
		</linearGradient>
		<linearGradient id="g2" x1="965.5" y1="152" x2="1095" y2="152" gradientUnits="userSpaceOnUse">
			<stop offset="0" stop-color="#d38125"/>
			<stop offset=".4" stop-color="#ffb53a"/>
			<stop offset=".6" stop-color="#ffe077"/>
			<stop offset="1" stop-color="#ffb53a"/>
		</linearGradient>
		<linearGradient id="g3" x1="491.2" y1="148.9" x2="693.7" y2="148.9" gradientUnits="userSpaceOnUse">
			<stop offset="0" stop-color="#d38125"/>
			<stop offset=".4" stop-color="#ffb53a"/>
			<stop offset=".6" stop-color="#ffe077"/>
			<stop offset="1" stop-color="#ffb53a"/>
		</linearGradient>
		<linearGradient id="g4" x1="705.6" y1="125.1" x2="940.1" y2="125.1" gradientUnits="userSpaceOnUse">
			<stop offset="0" stop-color="#d38125"/>
			<stop offset=".4" stop-color="#ffb53a"/>
			<stop offset=".6" stop-color="#ffe077"/>
			<stop offset="1" stop-color="#ffb53a"/>
		</linearGradient>
		<linearGradient id="g5" x1="1114.6" y1="149" x2="1253.2" y2="149" gradientUnits="userSpaceOnUse">
			<stop offset="0" stop-color="#d38125"/>
			<stop offset=".4" stop-color="#ffb53a"/>
			<stop offset=".6" stop-color="#ffe077"/>
			<stop offset="1" stop-color="#ffb53a"/>
		</linearGradient>
		<linearGradient id="g6" x1="319.7" y1="148.8" x2="461.4" y2="148.8" gradientUnits="userSpaceOnUse">
			<stop offset="0" stop-color="#d38125"/>
			<stop offset=".4" stop-color="#ffb53a"/>
			<stop offset=".6" stop-color="#ffe077"/>
			<stop offset="1" stop-color="#ffb53a"/>
		</linearGradient>
		<linearGradient id="g7" x1="784.5" y1="251.6" x2="860.7" y2="251.6" gradientUnits="userSpaceOnUse">
			<stop offset="0" stop-color="#d38125"/>
			<stop offset=".4" stop-color="#ffb53a"/>
			<stop offset=".6" stop-color="#ffe077"/>
			<stop offset="1" stop-color="#ffb53a"/>
		</linearGradient>
		<linearGradient id="g8" x1="662.7" y1="31.5" x2="696" y2="31.5" gradientUnits="userSpaceOnUse">
			<stop offset="0" stop-color="#d38125"/>
			<stop offset=".4" stop-color="#ffb53a"/>
			<stop offset=".6" stop-color="#ffe077"/>
			<stop offset="1" stop-color="#ffb53a"/>
		</linearGradient>
		<linearGradient id="g9" x1="711.3" y1="31.5" x2="737.6" y2="31.5" gradientUnits="userSpaceOnUse">
			<stop offset="0" stop-color="#d38125"/>
			<stop offset=".4" stop-color="#ffb53a"/>
			<stop offset=".6" stop-color="#ffe077"/>
			<stop offset="1" stop-color="#ffb53a"/>
		</linearGradient>
		<linearGradient id="g10" x1="622" y1="31.4" x2="649" y2="31.4" gradientUnits="userSpaceOnUse">
			<stop offset="0" stop-color="#d38125"/>
			<stop offset=".4" stop-color="#ffb53a"/>
			<stop offset=".6" stop-color="#ffe077"/>
			<stop offset="1" stop-color="#ffb53a"/>
		</linearGradient>
	</defs>
	<style>
		.s0 { fill: url(#g1) } 
		.s1 { fill: url(#g2) } 
		.s2 { fill: url(#g3) } 
		.s3 { fill: url(#g4) } 
		.s4 { fill: url(#g5) } 
		.s5 { fill: url(#g6) } 
		.s6 { fill: url(#g7) } 
		.s7 { fill: url(#g8) } 
		.s8 { fill: url(#g9) } 
		.s9 { fill: url(#g10) } 
	</style>
	<g id="Capa 1">
		<g id="&lt;Group&gt;">
			<path id="&lt;Compound Path&gt;" fill-rule="evenodd" class="s0" d="m146.7 397.2c-18.7-4.9-33-13.2-47.6-24.9c-8.5-6.8-14.7-13.9-21.3-22.5c-12.2-15.8-20.6-37.2-23-57.3c-1.2-9.3-0.8-12.5-0.8-22c0-1.2 0.3-1.6 0.4-3.1c0.7-13.4 6.4-31.3 12.2-42.7c13.2-25.9 33.1-44.7 59-57.7c11.5-5.8 26.4-9.9 39.6-11.3c16-1.7 28.5-0.7 43.9 3.2c7.7 1.9 14.5 4.6 21.5 7.9c12.9 5.9 25.4 14.8 34.7 24.1c7.9 7.9 13.5 14.6 19.5 24.3c9 14.5 15.2 31.6 17.2 49c1.1 9.6 0.8 11 0.8 20.8l-1.6 12.9c-3.9 21.4-13.6 43.3-28.1 59.3c-1.2 1.3-2.3 2.6-3.5 3.9c-6.7 6.6-11.1 11.2-19.4 17c-6.2 4.4-11.8 7.6-18.5 11c-6.3 3.2-13.6 6-21.3 8c-5.5 1.5-19.1 4.2-25.1 4.2c-15.7 0-23.1 0-38.6-4.1zm14.2-229c-27.7 4.6-48.2 17.7-66.8 37.8c-7 7.6-14.8 20.6-18.8 30.1c-5.2 12.4-10.3 33.4-8.5 47.1c0.6 4 0.4 7.1 1.3 12.4c0.7 4.3 1.5 7.7 2.6 11.5c4.8 16.9 11.2 27.8 21.6 41.1c1.1 1.5 2 2.4 3.2 3.9c9.4 11.3 27.4 23.5 40.7 29c29.9 12.3 62.3 11.5 91.4-3.3c15.5-7.9 24-15.9 35.1-27.5c7.2-7.5 14.5-20.6 18.8-30.2c2.9-6.5 4.9-13.5 6.5-21.3c0.9-4.2 1.3-8.2 1.8-12.3c0.4-4 0-8.9 0-13.2c0.1-8-1.9-17.4-3.8-24c-4.7-16.7-13.3-32.3-24.8-44.9c-7.6-8.2-13.4-13.2-22.6-19.4c-11.4-7.7-25.3-13.3-39.4-16.2c-4.7-0.9-20.6-3.1-25.9-1.9z" />
			<path id="&lt;Compound Path&gt;" fill-rule="evenodd" class="s1" d="m1086 383.5c1.5 2.6 8.6 13 9 14.7c-16.2 0-12.3 2-18-6.9l-9.1-14.3c-7.4-11.3-15.5-24.5-22.8-36.1c-1.4-2.3-35.7-57.2-36.9-57.5h-30.6l0.1 114.8h-12.2v-240.1c18 0 55.5-1.3 70.8 2.9c8.6 2.3 17.7 6.7 24.1 12.7c6.4 5.9 11.8 12.9 15.1 22.1c7.3 20.9 4.6 44.7-5.5 60.5c-7.3 11.3-18.5 19.5-31.9 23.3c-3.9 1.1-10.9 3-15.8 3.1c1.1 2.6 55.4 87.3 63.7 100.8zm-108.3-111.8h34.5c1.2 0 3.9-0.4 5.8-0.4c4.8-0.1 12.6-1.6 16.8-2.9c13.4-4.1 22.1-11.3 28-24c8.6-18.5 5.5-45.6-9-60.2c-4.9-4.8-9-7.5-15.9-10.3c-4.8-1.9-17.1-4-22.2-4h-38z" />
			<path id="&lt;Path&gt;" class="s2" d="m492.2 262.2c0.5-3.5 1-6.6 1.6-9.8c1.2-5.9 3-11.9 5-17.3c4.4-11.3 9.2-20 15.8-29.3c5.8-8.2 13.8-16.8 21.9-23.2c18.6-14.8 38.4-24 63.2-26.9c26.9-3.1 51.5 2.7 74.7 13.9c2 1 9.3 4.6 10.9 5.9c1.1 0.8 1.4 2.1 2 3.5c1.1 2.9 2.2 5.2 3.3 8l3.1 7.9c-1.4-0.8-2.7-1.7-4-2.7c-16.9-12.4-41.3-21.4-62-24.5c-2.8-0.4-9.4-1-12.3-1c-3.8 0-3.3 0.3-5.5 0.4c-1.2 0.1-2.4 0-3.6 0c-1.6 0.1-4.5 0.4-6 0.6c-32.3 4.6-57.7 20.2-76.7 46.3c-26 35.6-27.2 88.1-2.2 125c3.8 5.6 4.9 6.9 8.7 11.6c17.6 21.4 43.6 34.2 71 37.9c8.8 1.2 21 1 30.1-0.3c9.2-1.3 15.5-2.8 24.2-5.2c6.6-1.8 22-7.6 28.5-11c-0.2 1.9-2.4 6.7-3.1 8.6c-1.6 4.5-1.8 6.3-4 7.3c-5.3 2.4-10.8 4.6-16.4 6.4c-7.7 2.4-25.2 6.4-33.7 6.7c-1.8 0-3.7 0.3-5.1 0.3h-13.7c-1.3 0-1.8-0.3-3.5-0.3c-1.6-0.1-2.2-0.2-3.3-0.3c-29.9-4-52.9-14.6-74.2-35.9c-9.6-9.6-18.2-21.4-24.2-34.5c-3.3-7.1-5.7-13.8-7.7-21.7c-1-3.7-1.9-7.9-2.5-12.3l-1.3-23.8z" />
			<path id="&lt;Path&gt;" class="s3" d="m705.3 398c-0.3-1.4 6.1-15 6.9-16.6l54.9-124.8c5.6-13.4 12.6-28 18.4-41.6l14.7-33.5c2.4-5.7 5.1-11.3 7.5-16.8c0.9-2.3 14.4-32.2 14.5-33.6h0.8c0.2 1.1 1.1 2.7 1.7 4.1c0.6 1.4 1.2 2.7 1.8 4.1l29.3 66.6c1.3 3 2.3 5.5 3.7 8.5c4.7 9.9 10 22.9 14.6 33.2l14.8 33.4c8.1 19.3 17.4 38.9 25.6 58.2c2.8 6.7 25.1 56.3 25.6 58.6h-12.2c-0.4-2-2.2-5.6-3.1-7.4l-49.3-112.1c-8.6-19.8-17.8-39.9-26.3-59.9c-2-4.7-4.5-10.3-6.7-14.9l-19.5-45c-1.2 0.9-9.2 19.8-10.1 22l-56.3 127.8c-1.1 2.7-2.2 4.6-3.3 7.3l-35 79.4c-0.4 1.1-0.8 3.1-2.3 3.1z" />
			<path id="&lt;Path&gt;" class="s4" d="m1140.8 226.4c17.3 39.1 94.3 40.4 112 92.1c5.2 15.1 2.6 32.5-4.6 45.9c-9.9 18.5-28.1 30.4-48.5 34.9l-10.9 1.7c-8.3 0.3-8.2 0.9-17.7-0.3c-7.2-1-11.8-2-18.6-4.6c-5.3-2-10.4-4.6-15.1-7.6c-7-4.6-14.7-11.8-19.6-18.7c-1-1.5-2.1-2.9-3.1-4.4c-3-4.8-1.6-2.7 3.2-16.2c1.2 0.9 4.5 6.5 5.8 8.4c14.4 21.6 37.7 35 66.7 31.3c15.7-2 27.6-8.3 38.1-18.8c8.3-8.3 16.5-25.2 13.7-42.1c-2.6-15.2-13-25.8-23.4-33.4c-13.2-9.7-31.3-17.9-46-25.3c-3.1-1.5-6.1-3-9.3-4.8c-8.7-5-17.5-11-24.2-18.5c-5-5.7-8-10.4-10.8-17.8c-3.9-10.1-3.6-22.7-0.6-33.1c1-3.4 2.2-6.6 3.7-9.6c2.7-5.2 7.6-11.9 11.7-15.3c10.3-8.9 24.3-15.2 38.9-15.2c10.8 0 16.2 0 27.1 3.7c7.9 2.7 14.8 6.4 21 11.2l2.7 2.3l4.5 11.6c0.9 2.5 2 5.8 3 8c-1.5-0.4-9-6.8-10.7-8.1c-8.8-6.9-20.9-13.3-32.1-15.6c-22.2-4.7-45.5 2.4-55.6 23.9c-2.2 4.5-4.2 11.3-4.2 17.4c0 6.7 0.1 10.5 2.9 17z" />
			<path id="&lt;Path&gt;" class="s5" d="m459 352.7c-1.4 4.5-3 8.1-5 11.8c-7.9 14.5-20.7 24.8-36 31c-5.9 2.4-17.1 5.3-24 5.5c-1.6 0-2.5 0.3-3.9 0.3c-6 0-7.4 0.3-13.7-0.7c-23.4-3.4-43.1-15.1-55.6-34.9c-1.1-1.8-2.4-2.9-1.4-5.3c0.9-2.2 4-9.3 4.1-11.2h0.8c1.2 4.6 12.3 17.6 16.8 22.1c6 6.1 15.8 11.9 24.1 14.7c9.6 3.2 18.7 3.9 28.8 3.2c19-1.5 38.9-12.6 48-29.6c8.7-16.4 9.3-33.7-1.5-49.4c-12.3-17.8-41.9-31.3-61.8-40.8c-18.9-9-38.4-22.3-45-43.1c-3-9.3-3-19.8-0.5-29.2c5.3-20.1 20.8-35.4 40.6-40.1c11.8-2.8 21-2.9 32.9-0.6c3.1 0.6 5.5 1.4 8.2 2.3c8 2.7 14.6 6.1 21.1 11.1c3.5 2.7 2.7 1.9 4.4 6.2l5.7 15.8c-2.9-1.1-26.2-25.1-53.2-25.1c-9.1 0-14.2 0.4-23 4.1c-13.5 5.6-24.5 19.1-25.9 35.1c-3.4 36.8 33.1 48.4 59.4 62.3c10.7 5.7 15.7 7.6 26.3 14.9c14.1 9.6 26.7 23.4 30.4 40.8c0.4 2.2 1.3 7 1.3 9.3c0 7.1-0.4 12.4-2.4 19.5z" />
			<path id="&lt;Path&gt;" class="s6" d="m838.6 285c0 7.4-0.1 7.2-2.1 15.1c-0.4 1.5-0.8 3.9-1.6 5.1c-1 1.5-2.7 1.6-4 2.7c1.5 3.3 1.5 11.2 1.5 15.1c0 4.5-2.8 9.1-2.8 16.1c0 0.9 0.4 1.2 0.4 2.3c0 9.2 0.3 5-1.2 14.1c-1.4 8.3-1.1 4.9-1.1 12.9c0 3.9 3.3 4.6 7 4.7c6 0.3 4.5 1.4 7.5 4.4h9.7c1.1 0.2 4.1 8.1 4.9 10c0.9 2.1 4.1 8.9 4 10.6c-24.5-0.2-52.6 0.5-76.5-0.1c-0.1-1.7 6-15.1 7.2-17.9c0.2-0.6 0.3-0.9 0.6-1.4l0.7-1.2l10.6-0.1c3-8.1 14.1-0.7 14.1-9.3c0-10.7-2.4-16-2.4-20v-7.5c0-0.5 0.4-1.3 0.4-4.3c0-1.3-1.3-5.7-1.7-7.3c-1.3-5.3-1-8.1-1-13.4c0-2.8 1.1-5.6 1.1-8.3c-3.8-0.3-4.4-3.2-5.3-6.8c-2.1-8.6-2.1-7.7-2.1-15.5c0-8.6 11.8-5.5 11.8-12.1c0-0.1-5.8-15.3 4.3-15.3c10.1 0 4.3 15 4.3 15.3c0 6.7 11.7 3.6 11.7 12.1z" />
			<path id="&lt;Path&gt;" class="s7" d="m662.7 37.4h4.8l-0.1 18.9h23.5l0.1-18.9h5v45.1c0 1.7-1.5 1.2-5.1 1.2l0.1-22.7h-23.5v22.7h-4.8z" />
			<path id="&lt;Path&gt;" class="s8" d="m711.3 37.4h23.2c0.9 0 2.6-0.8 3.1 4.4l-21.6 0.1v14.5l17.2 0.1l0.1 4.5h-17.3v18h18.4c-0.1 1.3-0.9 4.7-2.3 4.7h-20.8z" />
			<path id="&lt;Path&gt;" class="s9" d="m623.6 37.4h25.4v4.4h-10.9c0 6.3 0.2 38.1-0.2 41.8l-4.9 0.1v-41.9h-11c0.4-0.9 1.3-3.3 1.6-4.4z" />
		</g>
	</g>
</svg>